# xmcd CD database file
#
# Track frame offsets:
#	150
#	15502
#	29316
#	42539
#	54744
#	70259
#	83001
#	97174
#	119269
#	132017
#	159879
#	174342
#	191686
#	204267
#	221769
#	248411
#	264331
#	287354
#
# Disc length: 4085 seconds
#
# Revision: 0
# Processed by: cddbd v1.5PL3 Copyright (c) Steve Scherf et al.
# Submitted via: CDex 1.50beta10
#
DISCID=ef0ff312
DTITLE=RCA VICTOR GOLD SERIES-IS JAZZ! - RCA VICTOR GOLD SERIES-IS JAZZ!
DYEAR=2004
DGENRE=Jazz
TTITLE0=WHAT A WONDERFUL WORLD
TTITLE1=BLUE PEPPER
TTITLE2=LOVE FLOWER
TTITLE3=RAIN CHECK
TTITLE4=RUNNIN' WILD
TTITLE5=UNDER PARIS SKIES
TTITLE6=NIGHT AND DAY
TTITLE7=CHEROKEE
TTITLE8=RI GOT RHYTHM
TTITLE9=DON'T STOP THE CARNIVAL
TTITLE10=TAKE TEN
TTITLE11=TIJUANA GIFT SHOP
TTITLE12=SOMETIMES I FEEL LIKE A MOTHERLESS CHILD
TTITLE13=FOUR BROTHERS
TTITLE14=ALL THE THINGS YOU ARE
TTITLE15=OVER THE RAINBOW
TTITLE16=VOODOO CHILE
TTITLE17=TUPAC AMARU
EXTD=YEAR: 2004
EXTT0=
EXTT1=
EXTT2=
EXTT3=
EXTT4=
EXTT5=
EXTT6=
EXTT7=
EXTT8=
EXTT9=
EXTT10=
EXTT11=
EXTT12=
EXTT13=
EXTT14=
EXTT15=
EXTT16=
EXTT17=
PLAYORDER=
